<svg height="503pt" viewBox="-24 0 503 503.026" width="503pt" xmlns="http://www.w3.org/2000/svg"><path d="m335.371094 351.386719-7.34375 7.632812-104 104-104-104-22.398438-3.601562c15.359375-6.71875 29.832032-13.839844 38.398438-20.230469l8.082031-8.089844 47.917969 47.921875 32-16 32 16 46.402344-46.402343 6.398437 6.402343c5.28125 4.964844 15.746094 11.007813 26.542969 16.367188zm0 0" fill="#e6e9ed"/><path d="m395.867188 376.546875c-10.085938-3.769531-25.046876-9.449219-40-15.839844-7.445313-3.199219-13.613282-5.953125-20.503907-9.3125l-7.34375 7.632813-104 104-104-104-22.398437-3.601563c-19.761719 8.640625-41.039063 16.488281-53.449219 21.128907-29.4375 11.03125-44.1601562 22.078124-44.1601562 51.511718v74.960938h440.0000002s0-45.449219 0-74.960938c.015625-29.441406-14.703125-40.488281-44.144531-51.519531zm0 0" fill="#656d78"/><path d="m224.027344 343.019531-80-46.472656v30.472656l48 48 32-16 32 16 48-48v-30.472656zm0 0" fill="#f5f7fa"/><path d="m352.027344 182.136719v-23.117188h-255.992188v23.117188c0 83.769531 79.28125 160.882812 128 160.882812 48.722656 0 128-77.113281 127.992188-160.882812zm0 0" fill="#f0c7b7"/><path d="m224.269531 395.019531c-2.207031 0-4.039062-1.792969-4.039062-4 0-2.210937 1.75-4 3.949219-4h.089843c2.199219 0 4 1.789063 4 4 0 2.207031-1.792969 4-4 4zm0 0" fill="#ccd1d9"/><path d="m224.269531 427.027344c-2.207031 0-4.039062-1.792969-4.039062-4 0-2.210938 1.75-4 3.949219-4h.089843c2.199219 0 4 1.789062 4 4 0 2.207031-1.792969 4-4 4zm0 0" fill="#ccd1d9"/><path d="m352.027344 67.578125v91.449219s-56 8-128 8-128-8-128-8v-91.449219l128 27.449219zm0 0" fill="#545c66"/><path d="m224.027344 119.019531 128-27.425781v-32.015625l-128 27.441406-128-27.441406v32.015625zm0 0" fill="#434a54"/><path d="m335.371094 351.386719-111.34375 111.632812-113.277344-113.570312-16.464844 7.417969 129.742188 130.152343 127.714844-128.113281zm0 0" fill="#ffce54"/><path d="m231.851562.691406c-4.292968-.921875-11.34375-.921875-15.636718 0l-208.355469 44.65625c-4.292969.917969-4.292969 2.429688 0 3.351563l208.34375 44.648437c4.296875.917969 11.347656.917969 15.640625 0l208.359375-44.648437c4.296875-.921875 4.296875-2.433594 0-3.351563zm0 0" fill="#656d78"/><path d="m440.054688 51.019531h-200.683594c-2.207032 0-4-1.792969-4-4 0-2.210937 1.792968-4 4-4h200.683594c2.207031 0 4 1.789063 4 4 0 2.207031-1.792969 4-4 4zm0 0" fill="#f6bb42"/><path d="m440.054688 115.027344c-2.210938 0-4-1.800782-4-4v-64.007813c0-2.210937 1.789062-4 4-4 2.207031 0 4 1.789063 4 4v64.007813c0 2.207031-1.792969 4-4 4zm0 0" fill="#f6bb42"/><path d="m248.027344 47.019531c0 4.398438-10.679688 8-24 8-13.199219 0-24-3.601562-24-8 0-4.402343 10.800781-8 24-8 13.320312 0 24 3.605469 24 8zm0 0" fill="#545c66"/><path d="m448.835938 130.9375c-.429688-2.160156-.78125-3.917969-.78125-3.910156 0 0-1.800782 0-4 0h-8c-2.203126 0-4 0-4 0 0-.007813-.355469 1.757812-.785157 3.910156l-6.441406 32.167969c-.429687 2.160156 1.015625 3.921875 3.21875 3.921875h24c2.199219 0 3.644531-1.769532 3.214844-3.921875zm0 0" fill="#ffce54"/><path d="m444.054688 111.019531h-8c-2.203126 0-4 1.804688-4 4v11.992188h3.980468l.019532.007812h8c.007812 0 .015624-.007812.015624-.007812h3.984376v-11.992188c0-2.195312-1.800782-4-4-4zm0 0" fill="#656d78"/></svg>