<svg height="504pt" viewBox="-32 0 504 504" width="504pt" xmlns="http://www.w3.org/2000/svg"><path d="m375.601562 156c0-86.167969-69.832031-156-156-156-86.160156 0-156 69.832031-156 156 0 0 8 124-40 156 0 0 56.015626 40.015625 120.015626 40.015625h151.96875c64 0 120.015624-40.015625 120.015624-40.015625-48-32-40-156-40-156zm0 0" fill="#434a54"/><path d="m220 351.992188-67.761719 34.894531 39.363281 101.113281 6.789063 16h43.210937l6.789063-16 39.363281-101.113281zm0 0" fill="#e6e9ed"/><path d="m0 456v48h162.328125l-10.328125-16-16-24 8-24-48-56-16 5.457031c-12 4.078125-23.441406 7.359375-32 10.542969-32 12-48 24-48 56zm0 0" fill="#4a89dc"/><path d="m219.800781 351.894531-75.800781-38.925781v51.65625l16.640625 22.261719 58.960937-26.886719 59.359376 26.886719 16.640624-22.261719v-51.65625zm0 0" fill="#f5f7fa"/><g fill="#ccd1d9"><path d="m219.847656 396.007812c-2.214844 0-4.046875-1.792968-4.046875-4 0-2.207031 1.75-4 3.953125-4h.09375c2.199219 0 4 1.792969 4 4 0 2.207032-1.800781 4-4 4zm0 0"/><path d="m219.847656 420.007812c-2.214844 0-4.046875-1.792968-4.046875-4 0-2.207031 1.75-4 3.953125-4h.09375c2.199219 0 4 1.792969 4 4 0 2.207032-1.800781 4-4 4zm0 0"/><path d="m219.847656 444.007812c-2.214844 0-4.046875-1.792968-4.046875-4 0-2.207031 1.75-4 3.953125-4h.09375c2.199219 0 4 1.792969 4 4 0 2.207032-1.800781 4-4 4zm0 0"/><path d="m219.847656 468.007812c-2.214844 0-4.046875-1.792968-4.046875-4 0-2.207031 1.75-4 3.953125-4h.09375c2.199219 0 4 1.792969 4 4 0 2.207032-1.800781 4-4 4zm0 0"/><path d="m219.847656 492.007812c-2.214844 0-4.046875-1.792968-4.046875-4 0-2.207031 1.75-4 3.953125-4h.09375c2.199219 0 4 1.792969 4 4 0 2.207032-1.800781 4-4 4zm0 0"/></g><path d="m439.601562 456v48h-162.328124l10.328124-16 16-24-8-24 48-56 16 5.457031c12 4.078125 23.4375 7.359375 32 10.542969 32 12 48 24 48 56zm0 0" fill="#4a89dc"/><path d="m295.601562 335.992188 48 48.007812-48 56 8 24-26.328124 40h-35.671876zm0 0" fill="#5d9cec"/><path d="m219.601562 0c48.078126 0 91.125 21.761719 119.765626 56 0 0-19.277344 29.359375-67.765626 59.199219-43.363281 26.722656-110.160156 53.832031-207.511718 60.472656 0-12-.488282-19.671875-.488282-19.671875 0-86.167969 69.839844-156 156-156zm0 0" fill="#656d78"/><path d="m375.359375 160.230469c-54.230469-4.230469-103.757813-45.03125-103.757813-45.03125 48.488282-29.839844 67.765626-59.199219 67.765626-59.199219 22.640624 27.128906 36.234374 61.921875 36.234374 100 0 0-.082031 1.511719-.242187 4.230469zm0 0" fill="#545c66"/><path d="m271.601562 115.199219s40.292969 33.199219 88 42.816406v17.984375c0 53.03125-29.113281 103.769531-64 136.96875-25.28125 24.078125-53.59375 39.03125-76 39.03125-22.394531 0-50.722656-14.871094-76-39.03125-31.363281-29.839844-58.082031-73.839844-63.128906-120.96875v-17.65625c89.09375-8.296875 150.09375-33.855469 191.128906-59.144531zm0 0" fill="#f0c7b7"/><path d="m204.046875 200.238281c0 4.402344-3.605469 8-8 8h-56c-4.40625 0-8-3.597656-8-8v-16c0-4.398437 3.59375-8 8-8h56c4.394531 0 8 3.601563 8 8zm0 0" fill="#5d9cec"/><path d="m151.191406 208.238281h16.578125l8.558594-32h-16.558594zm0 0" fill="#87bcf4"/><path d="m172.046875 208.238281h4.28125l8.582031-32h-4.277344zm0 0" fill="#87bcf4"/><path d="m308.03125 200.238281c0 4.402344-3.589844 8-8 8h-56c-4.390625 0-8-3.597656-8-8v-16c0-4.398437 3.609375-8 8-8h56c4.410156 0 8 3.601563 8 8zm0 0" fill="#5d9cec"/><path d="m255.191406 208.238281h16.5625l8.574219-32h-16.558594zm0 0" fill="#87bcf4"/><path d="m276.03125 208.238281h4.28125l8.582031-32h-4.277343zm0 0" fill="#87bcf4"/><path d="m236.03125 196.480469h-31.984375c-2.214844 0-4-1.792969-4-4s1.785156-4 4-4h31.984375c2.214844 0 4 1.792969 4 4s-1.773438 4-4 4zm0 0" fill="#545c66"/><path d="m196.046875 212.238281h-56c-6.621094 0-12-5.382812-12-12v-16c0-6.613281 5.378906-12 12-12h56c6.609375 0 12 5.386719 12 12v16c0 6.617188-5.390625 12-12 12zm-56-32c-2.199219 0-4 1.800781-4 4v16c0 2.203125 1.800781 4 4 4h56c2.199219 0 4-1.796875 4-4v-16c0-2.199219-1.800781-4-4-4zm0 0" fill="#656d78"/><path d="m300.03125 212.238281h-56c-6.605469 0-12-5.382812-12-12v-16c0-6.613281 5.394531-12 12-12h56c6.625 0 12 5.386719 12 12v16c0 6.617188-5.375 12-12 12zm-56-32c-2.199219 0-4 1.800781-4 4v16c0 2.203125 1.800781 4 4 4h56c2.199219 0 4-1.796875 4-4v-16c0-2.199219-1.800781-4-4-4zm0 0" fill="#656d78"/><path d="m144 335.992188-48 48.007812 48 56-8 24 26.328125 40h35.671875zm0 0" fill="#5d9cec"/></svg>